#!OML:ASF I:\Actors\actors\Patient Classification 1\Patient 1\Session 1\Subject1.ASF
:FULLY-SPECIFIED
:DEGREES
917
root 0.574621 17.4872 9.40069 9.56205 -0.713582 -8.09568
lowerback -2.79276 1.74794 7.45121
upperback -7.2968 2.43041 0.426587
thorax -5.78773 0.812886 -3.76683
lowerneck -7.0692 -5.11605 -6.63011
upperneck 25.6407 -9.66009 13.445
head 10.2982 -3.76294 4.84177
rclavicle -1.49089e-016 6.75868e-015
rhumerus -24.0659 32.6118 -96.9341
rradius 131.103
rwrist -7.89581
rhand 4.70844 -54.0541
rfingers 7.12502
rthumb 30.0918 -441.625
lclavicle -1.49089e-016 6.75868e-015
lhumerus -63.4272 50.4451 34.3653
lradius 27.7406
lwrist -10.7203
lhand -32.1379 -30.3612
lfingers 7.12502
lthumb -5.38188 -0.449495
rfemur -2.47376 26.3775 25.3728
rtibia 1.39146
rfoot -13.5839 -28.3107
rtoes 8.47727
lfemur 8.47619 -51.4041 -15.719
ltibia -5.30274
lfoot -31.1977 58.2694
ltoes 17.5612
918
root 0.573576 17.4871 9.40461 9.55597 -0.725677 -8.16165
lowerback -3.15812 1.66776 7.3305
upperback -7.01617 2.28182 0.600163
thorax -5.30383 0.775932 -3.49963
lowerneck -9.64261 -6.51727 -5.08005
upperneck 27.1243 -11.0399 9.60082
head 11.2001 -4.50969 2.9346
rclavicle 9.93923e-015 -4.37326e-015
rhumerus -23.5149 32.978 -96.5805
rradius 131.066
rwrist -8.00657
rhand 4.71037 -54.0449
rfingers 7.12502
rthumb 30.0937 -441.615
lclavicle 9.93923e-015 -4.37326e-015
lhumerus -63.5558 51.0843 34.1942
lradius 27.7404
lwrist -10.8885
lhand -32.1054 -30.2716
lfingers 7.12502
lthumb -5.35051 -0.359167
rfemur -2.42974 26.4361 25.4715
rtibia 1.37839
rfoot -13.6254 -28.333
rtoes 8.52612
lfemur 8.49823 -51.3121 -15.6415
ltibia -5.32763
lfoot -31.1401 58.2204
ltoes 17.4887
919
root 0.573689 17.4869 9.40891 9.5569 -0.74316 -8.14428
lowerback -3.55562 1.5699 7.09387
upperback -6.71601 2.10672 0.782715
thorax -4.78714 0.731431 -3.16038
lowerneck -9.74996 -6.41447 -5.80329
upperneck 26.9161 -10.9915 10.5545
head 11.2463 -4.45615 3.40938
rclavicle 3.21037e-014 3.89618e-014
rhumerus -22.9082 33.4015 -96.1752
rradius 131.009
rwrist -8.0993
rhand 4.65827 -54.0713
rfingers 7.12502
rthumb 30.044 -441.651
lclavicle 3.21037e-014 3.89618e-014
lhumerus -64.016 51.9652 33.647
lradius 27.7132
lwrist -11.3925
lhand -32.068 -30.2916
lfingers 7.12502
lthumb -5.31442 -0.37821
rfemur -2.41313 26.4355 25.4536
rtibia 1.37123
rfoot -13.6673 -28.3028
rtoes 8.67652
lfemur 8.57492 -51.3923 -15.7287
ltibia -5.33439
lfoot -31.3655 58.28
ltoes 17.5955
920
root 0.57535 17.4877 9.41308 9.55884 -0.767159 -8.08704
lowerback -3.5409 1.56708 7.05984
upperback -6.71364 2.10382 0.77156
thorax -4.79346 0.731127 -3.15347
lowerneck -9.47074 -6.27385 -6.32146
upperneck 26.7361 -10.9256 11.4477
head 11.2055 -4.39573 3.8447
rclavicle 1.14798e-014 4.21423e-014
rhumerus -22.8767 33.4225 -96.163
rradius 130.995
rwrist -8.12734
rhand 4.55823 -54.1553
rfingers 7.12502
rthumb 29.9485 -441.752
lclavicle 1.14798e-014 4.21423e-014
lhumerus -64.0456 52.0057 33.6272
lradius 27.7296
lwrist -11.47
lhand -32.0949 -30.3183
lfingers 7.12502
lthumb -5.34036 -0.405581
rfemur -2.3978 26.4076 25.3826
rtibia 1.34338
rfoot -13.5861 -28.288
rtoes 8.50004
lfemur 8.67436 -51.5794 -15.9051
ltibia -5.2996
lfoot -31.8183 58.3589
ltoes 17.8878
921
root 0.576829 17.4882 9.41678 9.56405 -0.785508 -8.05286
lowerback -3.01235 1.70076 7.41331
upperback -7.10377 2.33861 0.471238
thorax -5.46787 0.787573 -3.68723
lowerneck -8.92925 -6.3064 -6.42332
upperneck 26.8324 -11.116 11.9018
head 11.1919 -4.46254 4.02342
rclavicle 1.41634e-014 -2.46493e-014
rhumerus -23.6439 32.8787 -96.7577
rradius 131.091
rwrist -7.97178
rhand 4.43336 -54.0913
rfingers 7.12502
rthumb 29.8294 -441.709
lclavicle 1.41634e-014 -2.46493e-014
lhumerus -66.043 52.7532 30.7347
lradius 27.5755
lwrist -13.772
lhand -31.8916 -30.6411
lfingers 7.12502
lthumb -5.14406 -0.723536
rfemur -2.38073 26.3885 25.3422
rtibia 1.31784
rfoot -13.5263 -28.2948
rtoes 8.29162
lfemur 8.73223 -51.6551 -16.0142
ltibia -5.27282
lfoot -31.9406 58.3928
ltoes 17.9154
922
root 0.577756 17.4877 9.42019 9.58139 -0.77604 -8.03955
lowerback -3.21137 1.74221 7.58032
upperback -6.99615 2.36585 0.354075
thorax -5.22789 0.800892 -3.89472
lowerneck -8.79339 -6.2785 -6.29802
upperneck 26.6674 -11.1049 11.986
head 11.0985 -4.44618 4.0344
rclavicle -1.18774e-014 -3.45885e-014
rhumerus -23.4274 32.7681 -96.7562
rradius 131.131
rwrist -7.82485
rhand 4.37214 -53.9186
rfingers 7.12502
rthumb 29.7709 -441.547
lclavicle -1.18774e-014 -3.45885e-014
lhumerus -65.5278 52.7738 31.124
lradius 27.56
lwrist -13.6165
lhand -31.9487 -30.6951
lfingers 7.12502
lthumb -5.19919 -0.778841
rfemur -2.36535 26.3513 25.3238
rtibia 1.28439
rfoot -13.5585 -28.2697
rtoes 8.26018
lfemur 8.72144 -51.6356 -16.032
ltibia -5.25648
lfoot -31.8318 58.3891
ltoes 17.7926
923
root 0.578119 17.4878 9.42333 9.60806 -0.750849 -8.03119
lowerback -2.93328 1.80225 7.79048
upperback -7.19384 2.47658 0.191318
thorax -5.57449 0.820957 -4.19661
lowerneck -8.12552 -5.971 -6.2769
upperneck 26.4121 -10.789 12.5014
head 10.8623 -4.27958 4.27915
rclavicle -2.98177e-014 1.11319e-014
rhumerus -23.7943 32.4714 -97.0456
rradius 131.187
rwrist -7.63693
rhand 4.45251 -53.8283
rfingers 7.12502
rthumb 29.8476 -441.443
lclavicle -2.98177e-014 1.11319e-014
lhumerus -63.3601 51.0438 33.8223
lradius 27.6623
lwrist -11.4776
lhand -32.1382 -30.5349
lfingers 7.12502
lthumb -5.38219 -0.623259
rfemur -2.35618 26.3346 25.3074
rtibia 1.22949
rfoot -13.5148 -28.2759
rtoes 8.06657
lfemur 8.64177 -51.6058 -15.9875
ltibia -5.21231
lfoot -31.9173 58.2945
ltoes 18.0334
924
root 0.577843 17.4884 9.42626 9.61169 -0.760846 -8.02321
lowerback -2.86963 1.80506 7.81452
upperback -7.20893 2.48659 0.174434
thorax -5.62463 0.821611 -4.23042
lowerneck -7.46858 -5.46391 -6.36326
upperneck 25.9459 -10.1818 13.2102
head 10.5303 -3.97652 4.64205
rclavicle -1.21259e-014 -4.77083e-015
rhumerus -23.8311 32.4525 -97.0658
rradius 131.19
rwrist -7.61206
rhand 4.5337 -53.8659
rfingers 7.12502
rthumb 29.9251 -441.467
lclavicle -1.21259e-014 -4.77083e-015
lhumerus -63.0867 50.8611 34.1373
lradius 27.6464
lwrist -11.2719
lhand -32.1134 -30.5209
lfingers 7.12502
lthumb -5.35821 -0.608632
rfemur -2.35167 26.3511 25.2961
rtibia 1.21298
rfoot -13.4562 -28.2916
rtoes 8.00639
lfemur 8.58538 -51.4867 -15.945
ltibia -5.19545
lfoot -31.9068 58.1625
ltoes 18.1974
925
root 0.578201 17.4883 9.43076 9.58931 -0.792534 -8.02863
lowerback -3.09075 1.74089 7.66432
upperback -7.0179 2.37522 0.317647
thorax -5.31573 0.795998 -3.98425
lowerneck -7.96891 -5.55911 -6.08845
upperneck 26.0926 -10.1933 12.5465
head 10.6317 -3.9983 4.3377
rclavicle 1.93318e-014 7.95139e-016
rhumerus -23.4916 32.7435 -96.8171
rradius 131.167
rwrist -7.7197
rhand 4.34253 -53.878
rfingers 7.12502
rthumb 29.7427 -441.512
lclavicle 1.93318e-014 7.95139e-016
lhumerus -64.901 52.4455 31.8241
lradius 27.51
lwrist -13.1701
lhand -31.9033 -30.8127
lfingers 7.12502
lthumb -5.15534 -0.895412
rfemur -2.31769 26.3763 25.3152
rtibia 1.23715
rfoot -13.5529 -28.2662
rtoes 8.25786
lfemur 8.69527 -51.5046 -16.0264
ltibia -5.21366
lfoot -32.0371 58.1838
ltoes 18.1848
926
root 0.578515 17.4884 9.43665 9.58104 -0.815115 -8.02038
lowerback -3.25946 1.70722 7.56354
upperback -6.90847 2.31163 0.395349
thorax -5.11502 0.782463 -3.83888
lowerneck -9.83011 -6.61133 -4.92273
upperneck 27.2488 -11.2344 9.64229
head 11.2978 -4.56723 2.8913
rclavicle 3.5334e-014 1.11319e-014
rhumerus -23.3316 32.9044 -96.7258
rradius 131.15
rwrist -7.8007
rhand 4.10365 -53.8905
rfingers 7.12502
rthumb 29.5147 -441.565
lclavicle 3.5334e-014 1.11319e-014
lhumerus -66.0788 53.352 30.3791
lradius 27.4679
lwrist -14.2214
lhand -31.7387 -31.0193
lfingers 7.12502
lthumb -4.99647 -1.0982
rfemur -2.27274 26.3818 25.3196
rtibia 1.23646
rfoot -13.637 -28.2477
rtoes 8.33154
lfemur 8.86471 -51.6899 -16.1866
ltibia -5.22619
lfoot -32.3761 58.3164
ltoes 18.2899
927
root 0.578259 17.4886 9.44033 9.59464 -0.843272 -8.04817
lowerback -3.28196 1.71107 7.58466
upperback -6.89914 2.31455 0.405209
thorax -5.09185 0.784251 -3.83945
lowerneck -9.09089 -6.13922 -6.02473
upperneck 26.7912 -10.8873 11.7265
head 11.1469 -4.3315 3.916
rclavicle -2.33572e-015 -5.1684e-015
rhumerus -23.3615 32.9389 -96.7822
rradius 131.141
rwrist -7.78076
rhand 4.2842 -53.9958
rfingers 7.12502
rthumb 29.687 -441.639
lclavicle -2.33572e-015 -5.1684e-015
lhumerus -66.0311 53.3693 30.4438
lradius 27.5023
lwrist -14.1344
lhand -31.6218 -30.9355
lfingers 7.12502
lthumb -4.8836 -1.01174
rfemur -2.2761 26.3459 25.3472
rtibia 1.23356
rfoot -13.6218 -28.2035
rtoes 8.25002
lfemur 8.94999 -51.8177 -16.2231
ltibia -5.24603
lfoot -32.7081 58.4069
ltoes 18.5705
928
root 0.577771 17.4882 9.4418 9.63081 -0.855885 -8.13308
lowerback -3.27804 1.71462 7.67117
upperback -6.89943 2.32083 0.433719
thorax -5.09308 0.783753 -3.85797
lowerneck -8.89223 -5.96299 -6.41473
upperneck 26.6489 -10.7455 12.4429
head 11.1062 -4.24091 4.27399
rclavicle 8.64713e-015 -7.15625e-015
rhumerus -23.3442 32.9455 -96.7478
rradius 131.108
rwrist -7.7408
rhand 4.6262 -53.9649
rfingers 7.12502
rthumb 30.0134 -441.55
lclavicle 8.64713e-015 -7.15625e-015
lhumerus -65.8507 53.3406 30.6371
lradius 27.4719
lwrist -14.002
lhand -31.6578 -30.8845
lfingers 7.12502
lthumb -4.91834 -0.961587
rfemur -2.3253 26.367 25.4338
rtibia 1.25778
rfoot -13.5762 -28.2083
rtoes 8.13215
lfemur 8.88393 -51.7605 -16.047
ltibia -5.27927
lfoot -32.7311 58.386
ltoes 18.6773
929
root 0.577364 17.4874 9.44468 9.68155 -0.843053 -8.18881
lowerback -3.30838 1.71346 7.71607
upperback -6.91036 2.31818 0.463991
thorax -5.08822 0.780961 -3.85048
lowerneck -9.02639 -6.02891 -6.4799
upperneck 26.7286 -10.8327 12.4297
head 11.1775 -4.28084 4.26691
rclavicle 7.10655e-015 2.90226e-014
rhumerus -23.3088 32.927 -96.6549
rradius 131.052
rwrist -7.7555
rhand 4.73379 -53.7225
rfingers 7.12502
rthumb 30.116 -441.289
lclavicle 7.10655e-015 2.90226e-014
lhumerus -65.8525 53.399 30.6074
lradius 27.4028
lwrist -14.0269
lhand -31.8144 -31.0239
lfingers 7.12502
lthumb -5.06952 -1.1045
rfemur -2.37663 26.3934 25.4827
rtibia 1.27244
rfoot -13.5568 -28.2331
rtoes 8.01061
lfemur 8.74806 -51.6085 -15.851
ltibia -5.30298
lfoot -32.4112 58.3089
ltoes 18.3872
930
root 0.577075 17.4875 9.4496 9.70596 -0.835614 -8.17219
lowerback -3.33052 1.7185 7.69674
upperback -6.91963 2.32314 0.459606
thorax -5.08515 0.784199 -3.84374
lowerneck -9.29075 -6.19088 -6.53183
upperneck 26.8841 -11.0485 12.3419
head 11.3148 -4.37844 4.20943
rclavicle 6.11263e-015 4.77083e-015
rhumerus -23.2621 32.9001 -96.5441
rradius 131.026
rwrist -7.82939
rhand 4.67009 -53.4949
rfingers 7.12502
rthumb 30.0553 -441.072
lclavicle 6.11263e-015 4.77083e-015
lhumerus -65.8138 53.4067 30.6446
lradius 27.3948
lwrist -13.9891
lhand -31.8654 -31.1498
lfingers 7.12502
lthumb -5.11879 -1.23159
rfemur -2.37416 26.3734 25.455
rtibia 1.24073
rfoot -13.5855 -28.22
rtoes 8.14089
lfemur 8.7627 -51.6999 -15.9014
ltibia -5.2721
lfoot -32.4982 58.3599
ltoes 18.2907
